<svg height="442pt" viewBox="0 0 442.82912 442" width="442pt" xmlns="http://www.w3.org/2000/svg"><path d="m36.355469 183.28125 39.34375-39.335938-70.867188-70.871093c-12.566406 39.734375-.15625 83.128906 31.523438 110.207031zm0 0"/><path d="m431.113281 431.484375c15.621094-15.621094 15.621094-40.949219 0-56.570313l-218.832031-218.847656c-.183594.382813-.429688.746094-.617188 1.121094-1.734374 3.5625-3.652343 7.03125-5.742187 10.398438-.230469.375-.488281.730468-.726563 1.105468-2.007812 3.144532-4.175781 6.183594-6.472656 9.136719-.441406.566406-.855468 1.144531-1.304687 1.703125-2.472657 3.0625-5.113281 6.007812-7.886719 8.839844-.578125.589844-1.175781 1.167968-1.769531 1.75-2.929688 2.867187-5.953125 5.648437-9.183594 8.242187-3.15625 2.5-6.441406 4.828125-9.839844 6.984375-.960937.613282-1.945312 1.199219-2.921875 1.78125-2.664062 1.601563-5.394531 3.097656-8.191406 4.488282-.640625.320312-1.230469.722656-1.878906 1.027343l218.800781 218.8125c15.625 15.601563 40.929687 15.613281 56.566406.027344zm-47.640625-45.304687c9.496094-9.066407 24.441406-9.066407 33.9375 0 9.371094 9.371093 9.371094 24.566406-.003906 33.9375-9.371094 9.375-24.566406 9.375-33.9375 0-9.375-9.371094-9.375-24.566407-.003906-33.9375zm0 0"/><path d="m138.945312 202.347656c10.71875-3.761718 20.726563-9.304687 29.601563-16.402344 39.328125-31.140624 50.816406-85.917968 27.320313-130.242187-23.496094-44.320313-75.28125-65.554687-123.128907-50.484375l65.191407 65.191406c9.375 9.375 9.375 24.570313 0 33.945313l-45.257813 45.253906c-.160156.117187-.328125.222656-.503906.320313-.089844.167968-.195313.324218-.308594.472656l-42.402344 42.402344c26.890625 16.4375 59.738281 19.941406 89.488281 9.542968zm20.648438-108.296875c3.125-3.125 8.1875-3.125 11.3125 0l22.625 22.632813c2.242188 1.96875 3.203125 5.027344 2.492188 7.925781-.714844 2.898437-2.988282 5.160156-5.890626 5.863281-2.902343.703125-5.953124-.273437-7.914062-2.527344l-22.625-22.628906c-3.117188-3.125-3.117188-8.183594 0-11.304687zm-16 16c3.125-3.125 8.1875-3.125 11.3125 0l22.625 22.632813c2.242188 1.96875 3.203125 5.027344 2.492188 7.925781-.714844 2.898437-2.988282 5.160156-5.890626 5.863281-2.902343.703125-5.953124-.273437-7.914062-2.527344l-22.625-22.628906c-3.117188-3.125-3.117188-8.183594 0-11.304687zm-16.976562 16.96875c3.125-3.125 8.1875-3.125 11.3125 0l22.632812 22.632813c2.207031 1.980468 3.136719 5.019531 2.414062 7.894531-.71875 2.875-2.96875 5.117187-5.851562 5.824219-2.878906.707031-5.910156-.234375-7.882812-2.449219l-22.632813-22.625c-1.5-1.5-2.34375-3.535156-2.34375-5.660156.003906-2.121094.847656-4.160157 2.351563-5.65625zm-16.96875 16.925781c3.125-3.121093 8.1875-3.121093 11.3125 0l22.632812 22.625c3.125 3.125 3.121094 8.191407-.003906 11.316407s-8.191406 3.121093-11.316406-.003907l-22.625-22.625c-3.121094-3.125-3.121094-8.1875 0-11.3125zm-16.976563 16.96875c3.125-3.121093 8.191406-3.121093 11.3125 0l22.632813 22.632813c2.082031 2.007813 2.914062 4.984375 2.183593 7.78125-.734375 2.796875-2.917969 4.980469-5.714843 5.710937-2.796876.734376-5.773438-.101562-7.78125-2.179687l-22.632813-22.632813c-3.117187-3.121093-3.117187-8.179687 0-11.304687zm0 0"/><path d="m406.097656 408.804688c3.125-3.125 3.125-8.191407 0-11.3125-3.140625-3.035157-8.128906-2.988282-11.214844.097656-3.085937 3.085937-3.128906 8.074218-.097656 11.214844 3.160156 3.03125 8.152344 3.03125 11.3125 0zm0 0"/></svg>